<?xml version="1.0" ?>
<!-- Uploaded to: SVG Repo, www.svgrepo.com, Generator: SVG Repo Mixer Tools -->
<svg width="800px" height="800px" viewBox="0 0 50 50" id="Message_And_Communication_Icons" version="1.1" xml:space="preserve" xmlns="http://www.w3.org/2000/svg" xmlns:xlink="http://www.w3.org/1999/xlink">
<g>
<g>
<g>
<path d="M35.8,12.1c2.1,2.7,3.3,6.1,3.3,9.8C39.1,30.8,31.9,38,23,38c-2.5,0-4.8-0.6-6.9-1.6l-0.7,0.7v6     l3.7-3.7c2.1,1,4.4,1.6,6.9,1.6c8.9,0,16.1-7.2,16.1-16.1C42.1,19.7,39.6,15.1,35.8,12.1z" style="fill:#4DE0F9;"/>
</g>
</g>
<g>
<g>
<path d="M13.8,43.6v-7.3c-3.5-3.2-5.5-7.7-5.5-12.4c0-9.2,7.5-16.7,16.7-16.7s16.7,7.5,16.7,16.7     S34.2,40.6,25,40.6c-2.3,0-4.6-0.5-6.8-1.5L13.8,43.6z M25,8.4c-8.5,0-15.5,6.9-15.5,15.5c0,4.4,1.9,8.7,5.3,11.6l0.2,0.2v4.9     l3-3l0.4,0.2c2.1,1,4.3,1.5,6.6,1.5c8.5,0,15.5-6.9,15.5-15.5S33.5,8.4,25,8.4z" style="fill:#0D5FC3;"/>
</g>
</g>
<g>
<g>
<path d="M15.4,15.2l-0.9-0.8c0.4-0.5,0.9-0.9,1.4-1.3l0.8,0.9C16.3,14.4,15.8,14.8,15.4,15.2z" style="fill:#4DE0F9;"/>
</g>
</g>
<g>
<g>
<path d="M12.3,21.2L11.1,21c0.4-1.9,1.2-3.6,2.3-5.2l1,0.7C13.4,17.9,12.7,19.5,12.3,21.2z" style="fill:#4DE0F9;"/>
</g>
</g>
<g>
<g>
<path d="M19,23.5c-0.1,0-0.1,0-0.2,0c-0.1,0.7-0.6,1.2-1.3,1.3c0,0.1,0,0.1,0,0.2c0,0.8,0.7,1.5,1.5,1.5     s1.5-0.7,1.5-1.5S19.8,23.5,19,23.5z" style="fill:#4DE0F9;"/>
</g>
</g>
<g>
<g>
<path d="M26,23.5c-0.1,0-0.1,0-0.2,0c-0.1,0.7-0.6,1.2-1.3,1.3c0,0.1,0,0.1,0,0.2c0,0.8,0.7,1.5,1.5,1.5     s1.5-0.7,1.5-1.5S26.8,23.5,26,23.5z" style="fill:#4DE0F9;"/>
</g>
</g>
<g>
<g>
<path d="M33,23.5c-0.1,0-0.1,0-0.2,0c-0.1,0.7-0.6,1.2-1.3,1.3c0,0.1,0,0.1,0,0.2c0,0.8,0.7,1.5,1.5,1.5     s1.5-0.7,1.5-1.5S33.8,23.5,33,23.5z" style="fill:#4DE0F9;"/>
</g>
</g>
<g>
<g>
<path d="M18.3,26.3c-1.2,0-2.1-0.9-2.1-2.1s0.9-2.1,2.1-2.1s2.1,0.9,2.1,2.1S19.4,26.3,18.3,26.3z      M18.3,23.3c-0.5,0-0.9,0.4-0.9,0.9s0.4,0.9,0.9,0.9s0.9-0.4,0.9-0.9S18.8,23.3,18.3,23.3z" style="fill:#0D5FC3;"/>
</g>
</g>
<g>
<g>
<path d="M25.2,26.3c-1.2,0-2.1-0.9-2.1-2.1s0.9-2.1,2.1-2.1s2.1,0.9,2.1,2.1S26.4,26.3,25.2,26.3z      M25.2,23.3c-0.5,0-0.9,0.4-0.9,0.9s0.4,0.9,0.9,0.9s0.9-0.4,0.9-0.9S25.7,23.3,25.2,23.3z" style="fill:#0D5FC3;"/>
</g>
</g>
<g>
<g>
<path d="M32.2,26.3c-1.2,0-2.1-0.9-2.1-2.1s0.9-2.1,2.1-2.1s2.1,0.9,2.1,2.1S33.3,26.3,32.2,26.3z      M32.2,23.3c-0.5,0-0.9,0.4-0.9,0.9s0.4,0.9,0.9,0.9s0.9-0.4,0.9-0.9S32.7,23.3,32.2,23.3z" style="fill:#0D5FC3;"/>
</g>
</g>
</g>
</svg>