<?xml version="1.0" encoding="utf-8"?><!-- Uploaded to: SVG Repo, www.svgrepo.com, Generator: SVG Repo Mixer Tools -->
<svg fill="#000000" width="800px" height="800px" viewBox="0 0 24 24" id="phone" xmlns="http://www.w3.org/2000/svg" class="icon multi-color"><title style="stroke-width: 2;">phone</title><path id="secondary-fill" d="M21,15v3.93a2,2,0,0,1-2.29,2,18,18,0,0,1-6.9-2.38A18,18,0,0,1,5.9,6.15a1,1,0,0,1,1-1h3.31A10.5,10.5,0,0,0,11,7.67a1,1,0,0,1-.42,1.26l-.86.49a1,1,0,0,0-.33,1.46,14.08,14.08,0,0,0,3.69,3.69,1.08,1.08,0,0,0,.6.18,1,1,0,0,0,.86-.51l.49-.86A1,1,0,0,1,16.33,13a10.74,10.74,0,0,0,3.78,1A1,1,0,0,1,21,15Z" style="fill: rgb(44, 169, 188); stroke-width: 2;"></path><path id="primary-stroke" d="M21,15v3.93a2,2,0,0,1-2.29,2A18,18,0,0,1,3.14,5.29,2,2,0,0,1,5.13,3H9a1,1,0,0,1,1,.89,10.27,10.27,0,0,0,.17,1.24A10.5,10.5,0,0,0,11,7.67a1,1,0,0,1-.42,1.26l-.86.49a1,1,0,0,0-.33,1.46,14.08,14.08,0,0,0,3.69,3.69,1.08,1.08,0,0,0,.6.18,1,1,0,0,0,.86-.51l.49-.86A1,1,0,0,1,16.33,13a10.74,10.74,0,0,0,3.78,1A1,1,0,0,1,21,15Z" style="fill: none; stroke: rgb(0, 0, 0); stroke-linecap: round; stroke-linejoin: round; stroke-width: 2;"></path></svg>